<?xml version="1.0" standalone="no"?>
<!DOCTYPE svg PUBLIC "-//W3C//DTD SVG 20010904//EN"
 "http://www.w3.org/TR/2001/REC-SVG-20010904/DTD/svg10.dtd">
<svg version="1.0" xmlns="http://www.w3.org/2000/svg"
 width="260.000000pt" height="260.000000pt" viewBox="0 0 260.000000 260.000000"
 preserveAspectRatio="xMidYMid meet">
<metadata>
Created by potrace 1.14, written by Peter Selinger 2001-2017
</metadata>
<g transform="translate(0.000000,260.000000) scale(0.100000,-0.100000)"
fill="#000000" stroke="none">
<path d="M1323 2443 c-48 -42 -126 -115 -173 -162 -47 -47 -172 -166 -276
-263 -105 -97 -253 -242 -330 -323 -76 -81 -198 -206 -269 -278 -201 -203
-212 -223 -171 -302 23 -46 121 -189 171 -253 l34 -43 -99 -91 c-88 -80 -111
-107 -114 -130 -1 -3 -4 -9 -7 -13 -4 -3 -5 -25 -3 -48 3 -38 12 -50 92 -128
78 -75 93 -85 123 -85 49 2 93 33 188 136 46 50 89 90 96 88 8 -2 82 -71 167
-153 195 -191 383 -320 451 -309 31 4 759 726 948 939 55 62 106 116 113 118
7 3 67 64 134 135 l122 131 -15 35 c-8 19 -28 55 -45 79 -16 25 -30 48 -30 52
0 3 18 28 40 54 61 73 61 107 0 151 -23 16 -34 19 -44 11 -7 -6 -15 -9 -18 -6
-2 3 -20 -11 -38 -30 -19 -19 -39 -35 -45 -35 -13 0 -55 42 -55 55 0 4 22 32
50 61 52 55 56 73 25 120 -16 25 -17 25 -67 28 -26 2 -43 -7 -80 -41 -26 -24
-49 -43 -52 -43 -12 0 -46 45 -46 60 0 9 12 27 26 41 25 23 57 74 59 94 2 17
-28 64 -44 71 -42 17 -61 11 -117 -38 l-57 -49 -28 27 c-16 15 -29 32 -29 38
0 6 16 27 36 47 44 45 52 94 20 134 -36 45 -79 38 -136 -21 -26 -27 -51 -48
-54 -47 -4 1 -21 19 -37 39 l-30 38 38 38 c20 21 33 38 29 38 -5 0 -4 6 2 13
25 31 -39 99 -86 91 -15 -3 -48 -23 -73 -44 l-46 -39 -54 35 c-30 18 -58 34
-64 35 -5 0 -17 5 -27 10 -12 7 -36 -9 -105 -68z m125 -102 c20 -2 14 -21 -24
-67 -20 -24 -33 -44 -29 -44 4 0 2 -6 -4 -14 -8 -10 -9 -16 -1 -21 6 -3 8 -10
6 -14 -3 -4 7 -19 22 -33 40 -37 74 -30 133 28 l50 49 37 -20 c51 -27 53 -55
7 -92 -67 -52 -75 -103 -23 -137 51 -33 75 -28 134 25 58 53 69 54 107 11 18
-20 18 -21 -22 -64 -44 -49 -66 -94 -50 -103 5 -4 7 -10 4 -14 -2 -5 7 -19 20
-31 14 -13 25 -20 25 -16 0 5 6 3 14 -3 10 -8 16 -9 21 -1 3 6 10 8 14 6 4 -3
27 14 50 38 47 48 65 50 101 11 l22 -24 -50 -53 c-43 -46 -49 -58 -48 -92 2
-28 9 -45 28 -61 41 -35 75 -25 129 36 l45 52 26 -28 c32 -34 28 -45 -29 -107
-23 -26 -43 -51 -44 -55 0 -4 -2 -16 -4 -26 -3 -18 43 -82 53 -73 3 3 11 1 18
-5 16 -13 35 -3 95 46 l43 37 9 -24 c22 -56 13 -77 -63 -148 -26 -25 -157
-159 -291 -299 -134 -139 -300 -305 -369 -369 -69 -63 -194 -181 -278 -261
-84 -80 -161 -146 -170 -146 -20 0 -121 60 -142 85 -8 10 -35 32 -59 49 -90
63 -291 254 -291 275 0 22 325 350 520 525 58 52 111 99 118 106 7 7 15 18 16
26 2 8 7 23 11 34 32 79 62 165 58 165 -3 0 0 7 7 15 7 8 9 15 5 15 -4 0 -3 6
2 13 6 6 14 26 18 42 5 17 10 35 11 40 2 6 5 18 7 27 2 10 6 21 10 24 10 10
-12 34 -26 29 -7 -2 -21 -6 -32 -11 -11 -4 -22 -8 -25 -9 -3 -1 -13 -5 -22 -8
-44 -17 -54 -20 -68 -23 -9 -2 -42 -17 -75 -33 -33 -17 -65 -31 -72 -31 -23 0
-98 -47 -139 -86 -22 -21 -85 -89 -141 -149 -170 -187 -432 -445 -445 -440 -7
3 -24 22 -38 42 -14 21 -32 44 -40 53 -53 55 -88 112 -96 158 -1 8 80 98 181
200 101 103 208 216 238 252 49 57 683 685 724 717 9 7 25 11 37 8 12 -2 27
-4 34 -4z m-180 -943 c-1 -16 -47 -66 -142 -157 -194 -185 -303 -298 -553
-568 -191 -208 -253 -268 -253 -247 0 3 -6 2 -12 -4 -19 -15 -66 8 -107 52
-19 20 -32 36 -28 36 4 0 3 9 -3 19 -7 14 -7 22 0 26 6 4 8 10 5 14 -5 9 83
93 215 206 45 39 232 220 416 403 183 184 338 331 343 328 5 -4 12 -2 15 3 10
16 105 -86 104 -111z"/>
</g>
</svg>
